<svg xmlns="http://www.w3.org/2000/svg" viewBox="0 0 512 512" width="512" height="512">
  <defs>
    <linearGradient id="bg" x1="0%" y1="0%" x2="100%" y2="100%">
      <stop offset="0%" style="stop-color:#1e40af"/>
      <stop offset="100%" style="stop-color:#7c3aed"/>
    </linearGradient>
    <linearGradient id="pen" x1="0%" y1="0%" x2="100%" y2="100%">
      <stop offset="0%" style="stop-color:#fbbf24"/>
      <stop offset="100%" style="stop-color:#f59e0b"/>
    </linearGradient>
  </defs>
  <rect width="512" height="512" rx="96" fill="url(#bg)"/>
  <g transform="translate(256,256)">
    <g transform="rotate(-45)">
      <rect x="-18" y="-160" width="36" height="240" rx="8" fill="url(#pen)"/>
      <polygon points="0,100 -20,140 0,130 20,140" fill="#92400e"/>
      <rect x="-24" y="-170" width="48" height="20" rx="6" fill="#d97706"/>
    </g>
    <g transform="translate(0,60)">
      <path d="M-60,-10 Q-60,30 0,40 Q60,30 60,-10" fill="none" stroke="#e0e7ff" stroke-width="6" stroke-linecap="round" opacity="0.8"/>
      <path d="M-50,10 Q-50,40 0,50 Q50,40 50,10" fill="none" stroke="#e0e7ff" stroke-width="4" stroke-linecap="round" opacity="0.5"/>
    </g>
  </g>
  <circle cx="380" cy="120" r="40" fill="#818cf8" opacity="0.3"/>
  <circle cx="380" cy="120" r="24" fill="#a5b4fc" opacity="0.5"/>
  <text x="380" y="128" text-anchor="middle" font-family="Arial,sans-serif" font-size="28" font-weight="bold" fill="white" opacity="0.9">AI</text>
</svg>
